<svg id="visual" viewBox="0 0 900 600" width="900" height="600" xmlns="http://www.w3.org/2000/svg" xmlns:xlink="http://www.w3.org/1999/xlink" version="1.1"><rect x="0" y="0" width="900" height="600" fill="#256291"></rect><path d="M0 403L100 353L200 427L300 353L400 406L500 422L600 349L700 416L800 409L900 347L900 601L800 601L700 601L600 601L500 601L400 601L300 601L200 601L100 601L0 601Z" fill="#22274f"></path><path d="M0 472L100 475L200 462L300 436L400 475L500 451L600 430L700 405L800 402L900 456L900 601L800 601L700 601L600 601L500 601L400 601L300 601L200 601L100 601L0 601Z" fill="#64336f"></path><path d="M0 515L100 478L200 465L300 465L400 469L500 493L600 470L700 518L800 481L900 476L900 601L800 601L700 601L600 601L500 601L400 601L300 601L200 601L100 601L0 601Z" fill="#ae3877"></path><path d="M0 532L100 548L200 533L300 529L400 516L500 513L600 545L700 567L800 520L900 564L900 601L800 601L700 601L600 601L500 601L400 601L300 601L200 601L100 601L0 601Z" fill="#ed4a65"></path></svg>