<svg id="visual" viewBox="0 0 900 600" width="900" height="600" xmlns="http://www.w3.org/2000/svg" xmlns:xlink="http://www.w3.org/1999/xlink" version="1.1"><g stroke-width="1" stroke-linejoin="bevel"><path d="M444 302L444 212L385 287Z" fill="#071b31" stroke="#071b31"></path><path d="M444 212L371 212L385 287Z" fill="#06182b" stroke="#06182b"></path><path d="M444 302L520 227L444 212Z" fill="#1c254a" stroke="#1c254a"></path><path d="M520 227L445 153L444 212Z" fill="#22274f" stroke="#22274f"></path><path d="M444 212L379 156L371 212Z" fill="#172345" stroke="#172345"></path><path d="M445 153L379 156L444 212Z" fill="#071b31" stroke="#071b31"></path><path d="M368 371L442 375L444 302Z" fill="#1c254a" stroke="#1c254a"></path><path d="M444 302L539 301L520 227Z" fill="#22274f" stroke="#22274f"></path><path d="M314 161L307 223L371 212Z" fill="#071b31" stroke="#071b31"></path><path d="M371 212L307 223L385 287Z" fill="#0a1d36" stroke="#0a1d36"></path><path d="M385 287L368 371L444 302Z" fill="#0a1d36" stroke="#0a1d36"></path><path d="M532 374L539 301L444 302Z" fill="#172345" stroke="#172345"></path><path d="M307 223L302 290L385 287Z" fill="#00101c" stroke="#00101c"></path><path d="M302 290L368 371L385 287Z" fill="#122140" stroke="#122140"></path><path d="M379 156L314 161L371 212Z" fill="#172345" stroke="#172345"></path><path d="M604 223L523 139L520 227Z" fill="#00101c" stroke="#00101c"></path><path d="M520 227L523 139L445 153Z" fill="#1c254a" stroke="#1c254a"></path><path d="M445 153L441 76L379 156Z" fill="#00101c" stroke="#00101c"></path><path d="M379 156L307 75L314 161Z" fill="#172345" stroke="#172345"></path><path d="M442 375L532 374L444 302Z" fill="#0a1d36" stroke="#0a1d36"></path><path d="M523 139L441 76L445 153Z" fill="#071b31" stroke="#071b31"></path><path d="M614 309L604 223L539 301Z" fill="#021321" stroke="#021321"></path><path d="M539 301L604 223L520 227Z" fill="#041626" stroke="#041626"></path><path d="M302 290L288 387L368 371Z" fill="#0a1d36" stroke="#0a1d36"></path><path d="M368 371L367 454L442 375Z" fill="#071b31" stroke="#071b31"></path><path d="M442 375L530 439L532 374Z" fill="#172345" stroke="#172345"></path><path d="M223 305L288 387L302 290Z" fill="#021321" stroke="#021321"></path><path d="M236 234L302 290L307 223Z" fill="#0a1d36" stroke="#0a1d36"></path><path d="M232 143L236 234L307 223Z" fill="#041626" stroke="#041626"></path><path d="M532 374L614 309L539 301Z" fill="#22274f" stroke="#22274f"></path><path d="M441 76L382 63L379 156Z" fill="#122140" stroke="#122140"></path><path d="M314 161L232 143L307 223Z" fill="#0a1d36" stroke="#0a1d36"></path><path d="M288 387L367 454L368 371Z" fill="#122140" stroke="#122140"></path><path d="M236 234L223 305L302 290Z" fill="#172345" stroke="#172345"></path><path d="M367 454L458 461L442 375Z" fill="#122140" stroke="#122140"></path><path d="M532 374L614 388L614 309Z" fill="#0a1d36" stroke="#0a1d36"></path><path d="M458 461L530 439L442 375Z" fill="#172345" stroke="#172345"></path><path d="M607 140L536 75L523 139Z" fill="#1c254a" stroke="#1c254a"></path><path d="M523 139L536 75L441 76Z" fill="#122140" stroke="#122140"></path><path d="M441 76L456 0L382 63Z" fill="#0e1f3b" stroke="#0e1f3b"></path><path d="M382 63L307 75L379 156Z" fill="#1c254a" stroke="#1c254a"></path><path d="M674 140L607 140L604 223Z" fill="#0e1f3b" stroke="#0e1f3b"></path><path d="M604 223L607 140L523 139Z" fill="#041626" stroke="#041626"></path><path d="M307 75L232 143L314 161Z" fill="#0a1d36" stroke="#0a1d36"></path><path d="M236 234L163 210L223 305Z" fill="#021321" stroke="#021321"></path><path d="M597 443L614 388L532 374Z" fill="#021321" stroke="#021321"></path><path d="M223 305L222 370L288 387Z" fill="#0a1d36" stroke="#0a1d36"></path><path d="M288 387L298 452L367 454Z" fill="#041626" stroke="#041626"></path><path d="M216 449L298 452L288 387Z" fill="#0e1f3b" stroke="#0e1f3b"></path><path d="M367 454L363 511L458 461Z" fill="#0a1d36" stroke="#0a1d36"></path><path d="M680 389L666 293L614 309Z" fill="#1c254a" stroke="#1c254a"></path><path d="M614 309L666 293L604 223Z" fill="#071b31" stroke="#071b31"></path><path d="M530 439L597 443L532 374Z" fill="#021321" stroke="#021321"></path><path d="M614 388L680 389L614 309Z" fill="#122140" stroke="#122140"></path><path d="M611 510L597 443L530 439Z" fill="#06182b" stroke="#06182b"></path><path d="M666 293L681 231L604 223Z" fill="#22274f" stroke="#22274f"></path><path d="M533 0L456 0L536 75Z" fill="#0a1d36" stroke="#0a1d36"></path><path d="M536 75L456 0L441 76Z" fill="#0a1d36" stroke="#0a1d36"></path><path d="M382 63L362 0L307 75Z" fill="#041626" stroke="#041626"></path><path d="M298 452L363 511L367 454Z" fill="#041626" stroke="#041626"></path><path d="M458 461L529 538L530 439Z" fill="#122140" stroke="#122140"></path><path d="M456 0L362 0L382 63Z" fill="#00101c" stroke="#00101c"></path><path d="M307 75L221 71L232 143Z" fill="#0a1d36" stroke="#0a1d36"></path><path d="M154 150L163 210L232 143Z" fill="#0e1f3b" stroke="#0e1f3b"></path><path d="M232 143L163 210L236 234Z" fill="#0a1d36" stroke="#0a1d36"></path><path d="M223 305L148 368L222 370Z" fill="#041626" stroke="#041626"></path><path d="M681 70L606 60L607 140Z" fill="#071b31" stroke="#071b31"></path><path d="M607 140L606 60L536 75Z" fill="#0a1d36" stroke="#0a1d36"></path><path d="M297 0L221 71L307 75Z" fill="#0e1f3b" stroke="#0e1f3b"></path><path d="M363 511L454 531L458 461Z" fill="#22274f" stroke="#22274f"></path><path d="M681 231L674 140L604 223Z" fill="#22274f" stroke="#22274f"></path><path d="M606 60L533 0L536 75Z" fill="#0e1f3b" stroke="#0e1f3b"></path><path d="M222 370L216 449L288 387Z" fill="#041626" stroke="#041626"></path><path d="M298 452L314 535L363 511Z" fill="#172345" stroke="#172345"></path><path d="M148 368L216 449L222 370Z" fill="#041626" stroke="#041626"></path><path d="M362 0L297 0L307 75Z" fill="#172345" stroke="#172345"></path><path d="M163 210L139 298L223 305Z" fill="#172345" stroke="#172345"></path><path d="M661 435L680 389L614 388Z" fill="#041626" stroke="#041626"></path><path d="M666 293L741 294L681 231Z" fill="#071b31" stroke="#071b31"></path><path d="M221 71L154 150L232 143Z" fill="#021321" stroke="#021321"></path><path d="M63 222L76 304L139 298Z" fill="#22274f" stroke="#22274f"></path><path d="M611 510L661 435L597 443Z" fill="#172345" stroke="#172345"></path><path d="M597 443L661 435L614 388Z" fill="#122140" stroke="#122140"></path><path d="M139 298L148 368L223 305Z" fill="#0e1f3b" stroke="#0e1f3b"></path><path d="M231 528L314 535L298 452Z" fill="#22274f" stroke="#22274f"></path><path d="M366 600L438 600L454 531Z" fill="#122140" stroke="#122140"></path><path d="M438 600L529 538L454 531Z" fill="#021321" stroke="#021321"></path><path d="M454 531L529 538L458 461Z" fill="#122140" stroke="#122140"></path><path d="M606 60L600 0L533 0Z" fill="#122140" stroke="#122140"></path><path d="M688 0L600 0L606 60Z" fill="#1c254a" stroke="#1c254a"></path><path d="M529 538L611 510L530 439Z" fill="#22274f" stroke="#22274f"></path><path d="M737 155L681 70L674 140Z" fill="#22274f" stroke="#22274f"></path><path d="M674 140L681 70L607 140Z" fill="#041626" stroke="#041626"></path><path d="M680 389L741 294L666 293Z" fill="#041626" stroke="#041626"></path><path d="M681 231L737 155L674 140Z" fill="#06182b" stroke="#06182b"></path><path d="M763 366L741 294L680 389Z" fill="#172345" stroke="#172345"></path><path d="M154 0L152 76L221 71Z" fill="#1c254a" stroke="#1c254a"></path><path d="M221 71L152 76L154 150Z" fill="#22274f" stroke="#22274f"></path><path d="M63 222L139 298L163 210Z" fill="#0e1f3b" stroke="#0e1f3b"></path><path d="M762 236L737 155L681 231Z" fill="#021321" stroke="#021321"></path><path d="M297 0L214 0L221 71Z" fill="#1c254a" stroke="#1c254a"></path><path d="M216 449L231 528L298 452Z" fill="#122140" stroke="#122140"></path><path d="M153 530L231 528L216 449Z" fill="#0a1d36" stroke="#0a1d36"></path><path d="M741 294L762 236L681 231Z" fill="#22274f" stroke="#22274f"></path><path d="M148 368L144 453L216 449Z" fill="#041626" stroke="#041626"></path><path d="M82 368L144 453L148 368Z" fill="#1c254a" stroke="#1c254a"></path><path d="M366 600L363 511L314 535Z" fill="#172345" stroke="#172345"></path><path d="M366 600L454 531L363 511Z" fill="#22274f" stroke="#22274f"></path><path d="M529 538L588 600L611 510Z" fill="#122140" stroke="#122140"></path><path d="M304 600L366 600L314 535Z" fill="#071b31" stroke="#071b31"></path><path d="M87 153L163 210L154 150Z" fill="#0a1d36" stroke="#0a1d36"></path><path d="M139 298L82 368L148 368Z" fill="#172345" stroke="#172345"></path><path d="M89 63L87 153L152 76Z" fill="#06182b" stroke="#06182b"></path><path d="M152 76L87 153L154 150Z" fill="#071b31" stroke="#071b31"></path><path d="M736 440L680 389L661 435Z" fill="#0a1d36" stroke="#0a1d36"></path><path d="M736 440L763 366L680 389Z" fill="#172345" stroke="#172345"></path><path d="M839 287L833 233L762 236Z" fill="#021321" stroke="#021321"></path><path d="M76 304L82 368L139 298Z" fill="#122140" stroke="#122140"></path><path d="M673 531L736 440L661 435Z" fill="#021321" stroke="#021321"></path><path d="M438 600L539 600L529 538Z" fill="#0e1f3b" stroke="#0e1f3b"></path><path d="M611 510L673 531L661 435Z" fill="#122140" stroke="#122140"></path><path d="M87 153L63 222L163 210Z" fill="#00101c" stroke="#00101c"></path><path d="M0 457L76 463L82 368Z" fill="#22274f" stroke="#22274f"></path><path d="M219 600L304 600L231 528Z" fill="#172345" stroke="#172345"></path><path d="M231 528L304 600L314 535Z" fill="#06182b" stroke="#06182b"></path><path d="M758 69L688 0L681 70Z" fill="#0a1d36" stroke="#0a1d36"></path><path d="M681 70L688 0L606 60Z" fill="#0e1f3b" stroke="#0e1f3b"></path><path d="M588 600L673 531L611 510Z" fill="#021321" stroke="#021321"></path><path d="M214 0L154 0L221 71Z" fill="#1c254a" stroke="#1c254a"></path><path d="M539 600L588 600L529 538Z" fill="#1c254a" stroke="#1c254a"></path><path d="M817 141L758 69L737 155Z" fill="#0e1f3b" stroke="#0e1f3b"></path><path d="M737 155L758 69L681 70Z" fill="#021321" stroke="#021321"></path><path d="M76 463L153 530L144 453Z" fill="#071b31" stroke="#071b31"></path><path d="M144 453L153 530L216 449Z" fill="#00101c" stroke="#00101c"></path><path d="M154 0L89 63L152 76Z" fill="#0e1f3b" stroke="#0e1f3b"></path><path d="M0 160L0 230L63 222Z" fill="#172345" stroke="#172345"></path><path d="M153 530L219 600L231 528Z" fill="#172345" stroke="#172345"></path><path d="M82 368L76 463L144 453Z" fill="#041626" stroke="#041626"></path><path d="M153 530L142 600L219 600Z" fill="#0e1f3b" stroke="#0e1f3b"></path><path d="M0 365L82 368L76 304Z" fill="#071b31" stroke="#071b31"></path><path d="M683 600L739 518L673 531Z" fill="#021321" stroke="#021321"></path><path d="M673 531L739 518L736 440Z" fill="#1c254a" stroke="#1c254a"></path><path d="M810 450L833 365L763 366Z" fill="#041626" stroke="#041626"></path><path d="M839 287L762 236L741 294Z" fill="#1c254a" stroke="#1c254a"></path><path d="M762 236L817 141L737 155Z" fill="#122140" stroke="#122140"></path><path d="M839 287L741 294L763 366Z" fill="#071b31" stroke="#071b31"></path><path d="M833 233L817 141L762 236Z" fill="#041626" stroke="#041626"></path><path d="M833 365L839 287L763 366Z" fill="#0e1f3b" stroke="#0e1f3b"></path><path d="M810 450L763 366L736 440Z" fill="#00101c" stroke="#00101c"></path><path d="M819 63L761 0L758 69Z" fill="#06182b" stroke="#06182b"></path><path d="M758 69L761 0L688 0Z" fill="#0a1d36" stroke="#0a1d36"></path><path d="M0 160L63 222L87 153Z" fill="#071b31" stroke="#071b31"></path><path d="M63 222L0 295L76 304Z" fill="#172345" stroke="#172345"></path><path d="M0 230L0 295L63 222Z" fill="#021321" stroke="#021321"></path><path d="M588 600L683 600L673 531Z" fill="#021321" stroke="#021321"></path><path d="M810 537L810 450L739 518Z" fill="#22274f" stroke="#22274f"></path><path d="M739 518L810 450L736 440Z" fill="#041626" stroke="#041626"></path><path d="M0 66L0 160L87 153Z" fill="#041626" stroke="#041626"></path><path d="M154 0L73 0L89 63Z" fill="#06182b" stroke="#06182b"></path><path d="M89 63L0 66L87 153Z" fill="#172345" stroke="#172345"></path><path d="M0 295L0 365L76 304Z" fill="#1c254a" stroke="#1c254a"></path><path d="M900 67L819 63L817 141Z" fill="#041626" stroke="#041626"></path><path d="M817 141L819 63L758 69Z" fill="#0a1d36" stroke="#0a1d36"></path><path d="M818 0L819 63L900 0Z" fill="#041626" stroke="#041626"></path><path d="M61 523L153 530L76 463Z" fill="#021321" stroke="#021321"></path><path d="M85 600L142 600L153 530Z" fill="#122140" stroke="#122140"></path><path d="M0 457L61 523L76 463Z" fill="#021321" stroke="#021321"></path><path d="M73 0L0 66L89 63Z" fill="#06182b" stroke="#06182b"></path><path d="M0 365L0 457L82 368Z" fill="#041626" stroke="#041626"></path><path d="M900 159L817 141L833 233Z" fill="#021321" stroke="#021321"></path><path d="M819 63L818 0L761 0Z" fill="#00101c" stroke="#00101c"></path><path d="M683 600L746 600L739 518Z" fill="#021321" stroke="#021321"></path><path d="M746 600L810 537L739 518Z" fill="#22274f" stroke="#22274f"></path><path d="M900 367L839 287L833 365Z" fill="#00101c" stroke="#00101c"></path><path d="M900 367L900 287L839 287Z" fill="#0e1f3b" stroke="#0e1f3b"></path><path d="M839 287L900 287L833 233Z" fill="#071b31" stroke="#071b31"></path><path d="M900 367L833 365L900 458Z" fill="#172345" stroke="#172345"></path><path d="M900 287L900 217L833 233Z" fill="#0a1d36" stroke="#0a1d36"></path><path d="M0 600L85 600L61 523Z" fill="#0e1f3b" stroke="#0e1f3b"></path><path d="M61 523L85 600L153 530Z" fill="#0a1d36" stroke="#0a1d36"></path><path d="M900 217L900 159L833 233Z" fill="#00101c" stroke="#00101c"></path><path d="M900 458L833 365L810 450Z" fill="#1c254a" stroke="#1c254a"></path><path d="M73 0L0 0L0 66Z" fill="#041626" stroke="#041626"></path><path d="M0 457L0 521L61 523Z" fill="#071b31" stroke="#071b31"></path><path d="M900 159L900 67L817 141Z" fill="#06182b" stroke="#06182b"></path><path d="M900 511L810 450L810 537Z" fill="#22274f" stroke="#22274f"></path><path d="M900 511L900 458L810 450Z" fill="#06182b" stroke="#06182b"></path><path d="M746 600L823 600L810 537Z" fill="#06182b" stroke="#06182b"></path><path d="M900 600L900 511L810 537Z" fill="#071b31" stroke="#071b31"></path><path d="M900 67L900 0L819 63Z" fill="#041626" stroke="#041626"></path><path d="M0 521L0 600L61 523Z" fill="#06182b" stroke="#06182b"></path><path d="M823 600L900 600L810 537Z" fill="#041626" stroke="#041626"></path></g></svg>