<svg id="visual" viewBox="0 0 960 540" width="960" height="540" xmlns="http://www.w3.org/2000/svg" xmlns:xlink="http://www.w3.org/1999/xlink" version="1.1"><rect x="0" y="0" width="960" height="540" fill="#22274F"></rect><g transform="translate(902.1456625749366 511.50709873106314)"><path d="M223.2 -333.2C305 -294.6 398.1 -259.5 448.7 -192.2C499.4 -124.8 507.5 -25.3 485.9 64.2C464.2 153.8 412.7 233.4 348.4 294.6C284 355.8 206.8 398.6 122.6 428.3C38.3 458 -53 474.6 -104.3 426.8C-155.6 379 -167 266.8 -176.4 189.7C-185.7 112.6 -193.1 70.7 -244.3 8C-295.5 -54.7 -390.6 -138.3 -380.7 -179.5C-370.7 -220.8 -255.6 -219.8 -174.7 -258.8C-93.7 -297.8 -46.9 -376.9 11.9 -395.4C70.6 -413.9 141.3 -371.8 223.2 -333.2" fill="#BB004B"></path></g></svg>